<svg width="37" height="37" viewBox="0 0 37 37" fill="none" xmlns="http://www.w3.org/2000/svg">
<ellipse cx="18.3282" cy="18.5" rx="18.3282" ry="18.5" fill="#049376"/>
<path d="M19.6739 10.632C19.2073 10.912 18.7873 11.4067 18.4139 12.116C18.0593 12.8067 17.7606 13.6093 17.5179 14.524C17.2753 15.4387 17.0886 16.4187 16.9579 17.464C16.8459 18.4907 16.7899 19.48 16.7899 20.432C16.7899 21.048 16.8273 21.7387 16.9019 22.504C16.9766 23.2693 17.1259 23.988 17.3499 24.66C17.5926 25.332 17.9286 25.9013 18.3579 26.368C18.7873 26.816 19.3566 27.04 20.0659 27.04C20.8313 27.04 21.4753 26.7787 21.9979 26.256C22.5206 25.7147 22.9406 25.0147 23.2579 24.156C23.5939 23.2787 23.8366 22.2893 23.9859 21.188C24.1353 20.0867 24.2099 18.9667 24.2099 17.828C24.2099 16.0173 24.0419 14.5427 23.7059 13.404C23.3886 12.2467 22.9593 11.3413 22.4179 10.688C21.8766 10.0347 21.2419 9.596 20.5139 9.372C19.8046 9.12933 19.0486 9.008 18.2459 9.008C17.3126 9.008 16.4353 9.13867 15.6139 9.4C14.8113 9.66133 14.1019 10.0533 13.4859 10.576C12.8886 11.0987 12.4126 11.752 12.0579 12.536C11.7219 13.32 11.5539 14.2347 11.5539 15.28C11.5539 15.8213 11.5913 16.26 11.6659 16.596C11.7406 16.932 11.8246 17.2027 11.9179 17.408C12.0113 17.5947 12.1046 17.7347 12.1979 17.828C12.3099 17.9213 12.3846 17.9773 12.4219 17.996C11.4139 17.996 10.6206 17.744 10.0419 17.24C9.46326 16.7173 9.17392 15.9333 9.17392 14.888C9.17392 13.936 9.41659 13.04 9.90192 12.2C10.4059 11.36 11.0873 10.632 11.9459 10.016C12.8046 9.4 13.8126 8.91467 14.9699 8.56C16.1273 8.18667 17.3686 8 18.6939 8C20.4113 8 21.8393 8.29867 22.9779 8.896C24.1166 9.49333 25.0313 10.2867 25.7219 11.276C26.4126 12.2467 26.8979 13.3667 27.1779 14.636C27.4579 15.8867 27.5979 17.184 27.5979 18.528C27.5979 19.76 27.4766 21.0107 27.2339 22.28C27.0099 23.5307 26.6086 24.6693 26.0299 25.696C25.4513 26.7227 24.6859 27.5627 23.7339 28.216C22.7819 28.8507 21.5873 29.168 20.1499 29.168C19.2166 29.168 18.3393 29.0093 17.5179 28.692C16.6966 28.3747 15.9779 27.852 15.3619 27.124C14.7459 26.396 14.2513 25.444 13.8779 24.268C13.5233 23.092 13.3459 21.6453 13.3459 19.928C13.3459 18.864 13.4299 17.772 13.5979 16.652C13.7659 15.532 14.0366 14.5147 14.4099 13.6C14.7833 12.6667 15.2779 11.9013 15.8939 11.304C16.5286 10.7067 17.3126 10.408 18.2459 10.408C18.4513 10.408 18.6753 10.4267 18.9179 10.464C19.1606 10.4827 19.4126 10.5387 19.6739 10.632Z" fill="#FAFAFA"/>
</svg>
