<svg width="37" height="37" viewBox="0 0 37 37" fill="none" xmlns="http://www.w3.org/2000/svg">
<ellipse cx="18.3282" cy="18.5" rx="18.3282" ry="18.5" fill="#049376"/>
<path d="M17.6589 26.08L20.7549 10.12H22.5309L25.9629 26.08L29.0589 10.12H30.4269L26.6349 28H23.9709L21.0909 14.992L18.3309 28H15.6669L11.8509 11.368C11.2429 11.368 10.7309 11.48 10.3149 11.704C9.89888 11.912 9.56288 12.2 9.30688 12.568C9.05088 12.92 8.85888 13.328 8.73088 13.792C8.61888 14.24 8.56288 14.704 8.56288 15.184C8.56288 15.872 8.65888 16.488 8.85088 17.032C9.04288 17.576 9.32288 18.08 9.69088 18.544C9.37088 18.544 9.05088 18.496 8.73088 18.4C8.41088 18.304 8.12288 18.136 7.86688 17.896C7.61088 17.656 7.40288 17.336 7.24288 16.936C7.08288 16.52 7.00288 16 7.00288 15.376C7.00288 14.656 7.13888 13.968 7.41088 13.312C7.68288 12.656 8.08288 12.088 8.61088 11.608C9.13888 11.112 9.78688 10.72 10.5549 10.432C11.3229 10.144 12.2029 10 13.1949 10C13.3709 10 13.5389 10.008 13.6989 10.024C13.8749 10.04 14.0509 10.064 14.2269 10.096L17.6589 26.08Z" fill="#FAFAFA"/>
</svg>
